<svg xmlns="http://www.w3.org/2000/svg" width="48" height="48" viewBox="0 0 48 48">
  <g fill="none" fill-rule="evenodd">
    <path fill="#FFF" opacity="0.3" d="M24,47.8241758 C47.814834,47.8241758 48,37.1183694 48,23.9120879 C48,10.7058064 47.814834,0 24,0 C0.185166005,0 0,10.7058064 0,23.9120879 C0,37.1183694 0.185166005,47.8241758 24,47.8241758 Z"/>
    <g transform="translate(12 8.182)">
      <path fill="#FFF" d="M2.42424242,0 L10.4347826,0 C11.4782609,0 12.3478261,0.363636364 13.0434783,1.09090909 L22.9565217,10.3886719 C23.6521739,11.0992543 24,12 24,13.0909091 L24,28.0529542 C24,29.4295241 22.9146297,30.5454545 21.5757576,30.5454545 L2.42424242,30.5454545 C1.0853703,30.5454545 0,29.4295241 0,28.0529542 L0,2.49250033 C0,1.11593041 1.0853703,0 2.42424242,0 Z"/>
      <path fill="#000" opacity="0.3" d="M10.8636364,0 C12.0614973,0 13.1737968,0 14.7139037,1.54010695 L22.4144385,9.24064171 C23.9545455,10.7807487 23.9545455,11.2941176 23.9545455,13.0909091 C23.9545455,12.3208556 23.184492,10.7807487 20.8743316,10.7807487 C20.0872318,10.7802245 18.2860231,10.7801198 15.4707054,10.7804346 C14.2022991,10.7805785 13.1739381,9.74866673 13.1737968,8.47559719 L13.1737968,3.0802139 C13.1737968,0.770053476 11.6336898,0 10.8636364,0 Z"/>
    </g>
    <path fill="#000" opacity="0.3" d="M21.2330579,19.9237013 L24,19.6363636 L26.7669421,19.9237013 L28.9090909,22.7483766 L24,28.3636364 L19.0909091,22.7483766 L21.2330579,19.9237013 Z"/>
  </g>
</svg>
