<svg xmlns="http://www.w3.org/2000/svg" width="48" height="49" viewBox="0 0 48 49">
  <g fill="none">
    <g>
      <path fill="#0091FF" d="M24,48 C47.814834,48 48,37.254834 48,24 C48,10.745166 47.814834,0 24,0 C0.18516601,0 0,10.745166 0,24 C0,37.254834 0.18516601,48 24,48 Z"/>
      <path fill="#FFF" fill-opacity=".2" d="M24,48 C47.814834,48 48,37.254834 48,24 C48,10.745166 47.814834,0 24,0 C0.18516601,0 0,10.745166 0,24 C0,37.254834 0.18516601,48 24,48 Z"/>
      <g transform="translate(9 11)">
        <path fill="#0074CC" d="M7,7.61323363 C8.00465823,3.28002123 12.7271878,0 18.4013714,0 C24.8071171,0 30,4.1803177 30,9.33700091 C30,12.181946 28.4194239,14.7297113 25.9266088,16.4422794 C25.9810606,17.7575689 26.4929994,18.7089652 27.4624253,19.2964685 C29.0946918,20.2856746 24.6744068,20.4888719 22.1025135,18.1885444 C22.0529916,18.201958 22.0033203,18.2151099 21.9535021,18.2279979 C22.2931567,17.387629 22.4765652,16.4916609 22.4765652,15.5616682 C22.4765652,10.7487639 17.5643786,6.847134 11.5048895,6.847134 C9.89937146,6.847134 8.37439804,7.1210418 7,7.61323363 Z"/>
        <polygon fill="#0074CC" points="5 11 18 11 18 20 5 20"/>
        <path fill="#FFF" d="M11.5,24.6740018 C10.216846,24.6740018 8.98277579,24.5033759 7.83033042,24.1885444 C5.28030718,26.4888719 0.89760998,26.2856746 2.51599652,25.2964685 C3.47717887,24.7089652 3.98476444,23.7575689 4.03875323,22.4422794 C1.56713573,20.7297113 -8.8817842e-16,18.181946 -8.8817842e-16,15.3370009 C-8.8817842e-16,10.1803177 5.14872538,6 11.5,6 C17.8512746,6 23,10.1803177 23,15.3370009 C23,20.4936841 17.8512746,24.6740018 11.5,24.6740018 L11.5,24.6740018 Z M7,12 C6.44771525,12 6,12.4477153 6,13 C6,13.5522847 6.44771525,14 7,14 L16,14 C16.5522847,14 17,13.5522847 17,13 C17,12.4477153 16.5522847,12 16,12 L7,12 Z M7,16 C6.44771525,16 6,16.4477153 6,17 C6,17.5522847 6.44771525,18 7,18 L13,18 C13.5522847,18 14,17.5522847 14,17 C14,16.4477153 13.5522847,16 13,16 L7,16 Z"/>
      </g>
    </g>
  </g>
</svg>
