<svg xmlns="http://www.w3.org/2000/svg" width="48" height="48" viewBox="0 0 48 48">
  <g fill="#FFF" fill-rule="evenodd">
    <path fill-rule="nonzero" d="M24,48 C47.815,48 48,37.255 48,24 C48,10.745 47.815,0 24,0 C0.185,0 0,10.745 0,24 C0,37.255 0.185,48 24,48 Z" opacity=".3"/>
    <path d="M25.0176149,8.72727273 C25.8694555,8.72727273 26.5943714,9.34771625 26.7258759,10.1893449 L27.2673199,13.6506137 C27.8866195,13.8475851 28.4819453,14.0990629 29.047769,14.39947 L31.8442117,12.3603889 C32.5335674,11.8575264 33.4866934,11.932756 34.0886235,12.5375388 L35.4181186,13.8733348 C36.0157885,14.4738372 36.090276,15.4189615 35.5940548,16.105676 L33.5643064,18.9141037 C33.904203,19.5512631 34.1833696,20.2262831 34.3939898,20.9312786 L37.8106551,21.4662339 C38.6522838,21.5977384 39.2727273,22.3226543 39.2727273,23.1744948 L39.2727273,25.0176149 C39.2727273,25.8694555 38.6522838,26.5943714 37.8106551,26.7258759 L34.3941347,27.2603464 C34.1956965,27.9246776 33.9363923,28.5623943 33.6227618,29.1668988 L35.5940535,31.8943237 C36.0902753,32.5810383 36.0157881,33.5261631 35.418118,34.1266658 L34.0886241,35.4624606 C33.4866938,36.0672436 32.5335672,36.142473 31.8442115,35.6396098 L29.1985322,33.7110555 C28.5783576,34.0530498 27.9214627,34.3357541 27.2353354,34.5516137 L26.7258759,37.8106551 C26.5943714,38.6522838 25.8694555,39.2727273 25.0176149,39.2727273 L23.1744948,39.2727273 C22.3226543,39.2727273 21.5977384,38.6522838 21.4662339,37.8106551 L20.9652039,34.6125522 C20.2060459,34.389965 19.4812218,34.0859834 18.8006301,33.7105935 L16.1557883,35.6396111 C15.4664326,36.1424736 14.5133066,36.067244 13.9113765,35.4624612 L12.5818814,34.1266652 C11.9842115,33.5261628 11.909724,32.5810385 12.4059452,31.894324 L14.3768615,29.1661729 C14.063361,28.5618084 13.8041595,27.9242528 13.6057912,27.2600982 L10.1893449,26.7258759 C9.34771625,26.5943714 8.72727273,25.8694555 8.72727273,25.0176149 L8.72727273,23.1744948 C8.72727273,22.3226543 9.34771625,21.5977384 10.1893449,21.4662339 L13.6058207,20.9319131 C13.8163376,20.2271079 14.0953626,19.5522581 14.4350865,18.9152419 L12.4059465,16.1056763 C11.9097247,15.4189617 11.9842119,14.4738369 12.581882,13.8733342 L13.9113759,12.5375394 C14.5133062,11.9327564 15.4664328,11.857527 16.1557885,12.3603902 L18.9513305,14.3999482 C19.5785676,14.0668595 20.2420662,13.7939009 20.934294,13.5886711 L21.4662339,10.1893449 C21.5977384,9.34771625 22.3226543,8.72727273 23.1744948,8.72727273 L25.0176149,8.72727273 Z M24.0960549,19.2933105 C21.4435724,19.2933105 19.2933105,21.4435724 19.2933105,24.0960549 C19.2933105,26.7485374 21.4435724,28.8987993 24.0960549,28.8987993 C26.7485374,28.8987993 28.8987993,26.7485374 28.8987993,24.0960549 C28.8987993,21.4435724 26.7485374,19.2933105 24.0960549,19.2933105 Z"/>
  </g>
</svg>
