<svg xmlns="http://www.w3.org/2000/svg" width="48" height="49" viewBox="0 0 48 49">
  <g fill="none">
    <g>
      <path fill="#FB8332" d="M24,48 C47.815,48 48,37.255 48,24 C48,10.745 47.815,0 24,0 C0.185,0 0,10.745 0,24 C0,37.255 0.185,48 24,48 Z"/>
      <g fill="#FFF" transform="translate(14 14)">
        <path fill-opacity=".5" d="M0.00519209,16.0166645 L0.000352720003,1.0882983 C0.00015795,0.48724775 0.40674891,0.25884021 0.90633356,0.57675772 L11.4285714,7.27272727 L11.4285714,24 L1.5711741,17.9087632 C0.20508823,17.1514718 0.00710867,16.6814513 0.00519209,16.0166645 Z"/>
        <path d="M1.07239228,0 C0.48012638,0 0,0.4875845 0,1.0934476 L0,16 C0.02974853,16.5123686 0.00418067,17.0465669 1.60199116,17.921045 C1.60199116,17.921045 0.03635662,16.3721705 2.5,16.3636364 L20,16.3636364 L20,0 L1.07239228,0 Z"/>
      </g>
    </g>
  </g>
</svg>
